<svg xmlns="http://www.w3.org/2000/svg" width="24" height="25" viewBox="0 0 24 25">
    <path fill="#7C7C7C" d="M20.707 3.293c.36.36.388.928.083 1.32l-.083.094-2.179 2.18c.628.403 1.22.865 1.775 1.378 1.319 1.217 2.167 2.438 2.591 3.288.141.281.141.613 0 .894-.424.85-1.272 2.07-2.59 3.288C18.097 17.77 15.331 19 12 19c-1.706 0-3.264-.322-4.674-.91l-3.619 3.617c-.39.39-1.024.39-1.414 0-.36-.36-.388-.928-.083-1.32l.083-.094 3.179-3.18c-.628-.403-1.22-.865-1.775-1.378-1.319-1.217-2.167-2.438-2.591-3.288-.141-.281-.141-.613 0-.894.424-.85 1.272-2.07 2.59-3.288C5.903 6.23 8.669 5 12 5c1.706 0 3.264.322 4.674.91l2.619-2.617c.39-.39 1.024-.39 1.414 0zM17.075 8.34l-1.628 1.628c.351.595.553 1.29.553 2.031 0 2.21-1.79 4-4 4-.741 0-1.436-.202-2.031-.553L8.884 16.53c.962.306 2 .469 3.116.469 2.793 0 5.09-1.02 6.947-2.735.654-.604 1.205-1.252 1.654-1.898.066-.095.126-.184.18-.267l.063-.1-.063-.1-.18-.267c-.45-.646-1-1.294-1.654-1.898-.58-.536-1.204-1.004-1.872-1.394zM12 7C9.207 7 6.91 8.02 5.053 9.735c-.654.604-1.205 1.252-1.654 1.898-.066.095-.126.184-.18.267l-.064.1.064.1.18.267c.45.646 1 1.294 1.654 1.898.58.536 1.204 1.004 1.872 1.394l1.628-1.628C8.202 13.436 8 12.741 8 12c0-2.21 1.79-4 4-4 .741 0 1.436.202 2.031.553l1.085-1.084C14.154 7.163 13.116 7 12 7zm1.933 4.483l-2.45 2.45c.165.044.338.067.517.067 1.105 0 2-.895 2-2 0-.179-.023-.352-.067-.517zM12 10c-1.105 0-2 .895-2 2 0 .179.023.352.067.517l2.45-2.45C12.352 10.023 12.179 10 12 10z"/>
</svg>
