<svg xmlns="http://www.w3.org/2000/svg" width="24" height="24" viewBox="0 0 24 24">
    <path fill="#333" d="M12 5.5c1.787 0 3.253 1.365 3.352 3.091l.005.187V11c0 .084-.02.164-.057.233 1.238.146 2.2 1.201 2.2 2.481v2.429c0 1.38-1.12 2.5-2.5 2.5H9c-1.38 0-2.5-1.12-2.5-2.5v-2.429c0-1.28.962-2.335 2.202-2.482-.025-.043-.042-.091-.051-.142L8.643 11V8.778C8.643 6.964 10.149 5.5 12 5.5zm3 6.714H9c-.828 0-1.5.672-1.5 1.5v2.429c0 .828.672 1.5 1.5 1.5h6c.828 0 1.5-.672 1.5-1.5v-2.429c0-.828-.672-1.5-1.5-1.5zM12 6.5c-1.25 0-2.269.94-2.352 2.122l-.005.156V11c0 .077-.018.15-.049.215h4.812c-.019-.039-.033-.081-.04-.125l-.009-.09V8.778C14.357 7.523 13.305 6.5 12 6.5z"/>
</svg>
