<svg xmlns="http://www.w3.org/2000/svg" width="24" height="24" viewBox="0 0 24 24">
    <path fill="#757575" fill-rule="evenodd" d="M13.515 3.004l.04.004C18.305 3.533 22 7.56 22 12.45c0 5.247-4.253 9.5-9.5 9.5S3 17.697 3 12.45c0-2.46.935-4.702 2.47-6.39L3 6.062c-.513 0-.936-.386-.993-.884L2 5.062c0-.513.386-.936.883-.994L3 4.062h5.278c.513 0 .935.386.993.883l.007.117v5.277c0 .553-.448 1-1 1-.513 0-.936-.386-.993-.883l-.007-.117-.002-3.114C5.938 8.562 5.111 10.41 5.111 12.45c0 4.081 3.308 7.39 7.389 7.39 4.08 0 7.389-3.309 7.389-7.39 0-3.722-2.753-6.801-6.333-7.314-.41-.074-1.195-.188-1.16-1.175.033-.933.854-.98 1.119-.957z"/>
</svg>
