<svg xmlns="http://www.w3.org/2000/svg" width="24" height="25" viewBox="0 0 24 25">
    <path fill="#7C7C7C" d="M12 5c3.332 0 6.098 1.23 8.303 3.265 1.319 1.217 2.167 2.438 2.591 3.288.141.281.141.613 0 .894-.424.85-1.272 2.07-2.59 3.288C18.097 17.77 15.331 19 12 19s-6.098-1.23-8.303-3.265c-1.319-1.217-2.167-2.438-2.591-3.288-.141-.281-.141-.613 0-.894.424-.85 1.272-2.07 2.59-3.288C5.903 6.23 8.669 5 12 5zm0 2C9.207 7 6.91 8.02 5.053 9.735c-.654.604-1.205 1.252-1.654 1.898-.066.095-.126.184-.18.267l-.064.1.064.1.18.267c.45.646 1 1.294 1.654 1.898C6.91 15.98 9.207 17 12 17s5.09-1.02 6.947-2.735c.654-.604 1.205-1.252 1.654-1.898.066-.095.126-.184.18-.267l.063-.101-.063-.099-.18-.267c-.45-.646-1-1.294-1.654-1.898C17.09 8.02 14.793 7 12 7zm0 1c2.21 0 4 1.79 4 4s-1.79 4-4 4-4-1.79-4-4 1.79-4 4-4zm0 2c-1.105 0-2 .895-2 2s.895 2 2 2 2-.895 2-2-.895-2-2-2z"/>
</svg>
