<svg xmlns="http://www.w3.org/2000/svg" width="24" height="24" viewBox="0 0 24 24">
    <g fill="#333" fill-rule="evenodd">
        <path d="M12 16.625c-.386 0-.698.308-.698.687 0 .38.312.688.698.688.386 0 .698-.308.698-.688 0-.379-.312-.687-.698-.687"/>
        <path fill-opacity=".3" d="M12 13.875c-.91 0-1.77.343-2.424.965-.277.264-.284.699-.017.972.269.273.711.28.987.017.785-.747 2.123-.747 2.909 0 .134.128.31.193.484.193.183 0 .366-.07.502-.21.268-.273.26-.708-.017-.972-.654-.622-1.515-.965-2.424-.965M12 10.437c-1.694 0-3.342.689-4.519 1.89-.266.273-.26.709.018.972.277.264.72.256.987-.017.915-.934 2.196-1.47 3.514-1.47 1.318 0 2.6.536 3.514 1.47.137.14.32.21.503.21.174 0 .35-.064.484-.193.278-.263.285-.699.018-.972-1.177-1.201-2.824-1.89-4.519-1.89"/>
        <path fill-opacity=".3" d="M18.787 9.701C16.956 7.96 14.546 7 12 7c-2.545 0-4.955.96-6.787 2.701-.277.264-.284.7-.018.972.269.274.711.282.987.017C7.752 9.197 9.818 8.375 12 8.375c2.182 0 4.247.822 5.818 2.315.135.13.31.193.485.193.182 0 .365-.07.501-.21.268-.273.26-.708-.017-.972"/>
    </g>
</svg>
