<svg xmlns="http://www.w3.org/2000/svg" width="104" height="28" viewBox="0 0 104 28">
    <g fill="#45D6DF" fill-rule="evenodd">
        <path d="M75.882 0h-8.407C66.66 0 66 .655 66 1.462v25.076c0 .807.66 1.462 1.475 1.462h8.407C83.68 28 90 21.732 90 14S83.68 0 75.882 0M101.607 0h-5.214C95.623 0 95 .655 95 1.462v25.076c0 .807.624 1.462 1.393 1.462h5.214c.77 0 1.393-.655 1.393-1.462V1.462C103 .655 102.377 0 101.607 0M47 28c-7.732 0-14-6.268-14-14S39.268 0 47 0s14 6.268 14 14-6.268 14-14 14zM26.538 0H1.462C.655 0 0 .655 0 1.462v25.075C0 27.345.655 28 1.462 28H8.4v-9.435c0-.651.788-.977 1.248-.517l3.318 3.318c.57.57 1.497.57 2.068 0l3.318-3.318c.46-.46 1.248-.134 1.248.517V28h6.938c.807 0 1.462-.655 1.462-1.463V1.462C28 .655 27.345 0 26.538 0"/>
    </g>
</svg>
