<svg xmlns="http://www.w3.org/2000/svg" width="162" height="28" viewBox="0 0 162 28">
    <g fill="none" fill-rule="evenodd">
        <g fill="#4E4E4E" fill-rule="nonzero">
            <path d="M3.566 13.263c0 2.825-.215 3.748-.79 4.429-.627.58-1.448.9-2.298.898l.215 1.68c1.319.019 2.597-.458 3.587-1.337 1.03-1.072 1.389-2.555 1.389-4.83V3.42H3.562v9.857l.004-.014zM19.282 11.976c0 1.217 0 2.289.096 3.211h-1.844l-.12-1.931h-.047c-.388.675-.948 1.233-1.621 1.618-.674.384-1.436.581-2.21.57-1.82 0-3.994-1.025-3.994-5.159V3.398h2.107v6.535c0 2.24.67 3.748 2.581 3.748.6-.012 1.182-.2 1.676-.544.493-.344.874-.827 1.097-1.388.128-.351.193-.723.191-1.097V3.408h2.107v8.568h-.019zM23.253 7.25c0-1.506-.047-2.723-.095-3.863h1.891l.096 2.019h.048c.414-.724 1.016-1.32 1.74-1.723.726-.403 1.546-.6 2.373-.567 2.797 0 4.904 2.415 4.904 5.99 0 4.235-2.533 6.326-5.268 6.326-.701.03-1.399-.125-2.024-.45-.624-.324-1.155-.807-1.538-1.4h-.048v6.4h-2.083V7.231l.004.019zm2.084 3.14c.005.293.037.586.095.874.172.714.576 1.349 1.149 1.803.572.455 1.279.702 2.007.703 2.227 0 3.515-1.85 3.515-4.549 0-2.362-1.221-4.38-3.443-4.38-.747.02-1.466.293-2.042.773-.576.48-.977 1.142-1.138 1.878-.084.284-.132.578-.143.874v2.024zM37.938 3.41l2.533 6.959c.263.777.55 1.705.742 2.415h.048c.215-.706.455-1.609.742-2.459l2.299-6.91h2.227l-3.156 8.398c-1.509 4.037-2.533 6.11-3.97 7.375-.726.68-1.616 1.158-2.581 1.386l-.527-1.802c.675-.227 1.301-.583 1.844-1.048.766-.646 1.373-1.462 1.772-2.386.085-.159.141-.332.167-.512-.019-.193-.067-.382-.144-.56l-4.28-10.852h2.298l-.014-.005zM52.059.022v3.38h3.012v1.633h-3.012v6.346c0 1.449.407 2.29 1.58 2.29.412.006.822-.043 1.221-.146l.096 1.609c-.6.212-1.233.31-1.868.29-.42.025-.842-.041-1.235-.197-.393-.155-.748-.394-1.04-.702-.598-.633-.813-1.68-.813-3.067V5.035h-1.796V3.403H50V.577l2.059-.555zM58.953 9.684c.048 2.897 1.868 4.09 3.97 4.09 1.099.035 2.192-.172 3.203-.608l.36 1.53c-1.212.514-2.518.763-3.831.73-3.563 0-5.694-2.386-5.694-5.94 0-3.555 2.059-6.351 5.43-6.351 3.779 0 4.789 3.38 4.789 5.55-.004.333-.028.667-.072.999H58.953zm6.173-1.531c.024-1.362-.551-3.482-2.917-3.482-2.13 0-3.06 1.994-3.227 3.482h6.148-.004zM70.244 7.082c0-1.387-.024-2.58-.096-3.676h1.844l.072 2.314h.096c.526-1.584 1.795-2.58 3.203-2.58.202-.002.403.022.599.073v2.019c-.236-.052-.477-.076-.719-.073-1.484 0-2.533 1.145-2.82 2.748-.06.33-.091.665-.096 1v6.279h-2.083V7.082z" transform="translate(85.451 3.843)"/>
        </g>
        <g fill="#45D6DF">
            <path d="M53.993 0h-5.982c-.58 0-1.05.468-1.05 1.045v17.91c0 .577.47 1.045 1.05 1.045h5.982c5.548 0 10.046-4.477 10.046-10S59.54 0 53.993 0M72.297 0h-3.71c-.547 0-.99.468-.99 1.045v17.91c0 .577.443 1.045.99 1.045h3.71c.548 0 .992-.468.992-1.045V1.045c0-.577-.444-1.045-.992-1.045M33.442 20c-5.501 0-9.961-4.477-9.961-10s4.46-10 9.961-10c5.502 0 9.962 4.477 9.962 10s-4.46 10-9.962 10zM18.882 0H1.041C.466 0 0 .468 0 1.045v17.91C0 19.532.466 20 1.04 20h4.937v-6.74c0-.464.56-.697.888-.368l2.36 2.37c.407.407 1.066.407 1.472 0l2.36-2.37c.329-.33.889-.096.889.369V20h4.936c.575 0 1.041-.468 1.041-1.045V1.045c0-.577-.466-1.045-1.04-1.045" transform="translate(0 3)"/>
        </g>
    </g>
</svg>
